<svg width="301" height="70" viewBox="0 0 301 70" fill="none" xmlns="http://www.w3.org/2000/svg">
<rect opacity="0.5" width="301" height="70" rx="15" fill="#8DF2D5"/>
<path d="M32.0833 11.6667H35V17.5292C44.5958 17.9404 46.6666 22.4438 46.6666 26.25H43.75C43.75 22.3796 40.3141 20.4167 33.5416 20.4167C31.15 20.4167 23.3333 20.8921 23.3333 26.9763C23.3333 29.5196 23.3333 32.4013 33.8945 35.0438L38.5787 36.4583C45.9666 39.1854 46.6666 42.5017 46.6666 45.9404C46.6666 51.4267 42.2391 54.9617 35 55.3758V61.25H32.0833V55.3875C22.4875 54.9763 20.4166 50.4729 20.4166 46.6667H23.3333C23.3333 50.5371 26.7691 52.5 33.5416 52.5C35.9333 52.5 43.75 52.0246 43.75 45.9404C43.75 43.3971 43.75 40.5154 33.1887 37.8729L28.5045 36.4583C21.1166 33.7313 20.4166 30.415 20.4166 26.9763C20.4166 21.49 24.8441 17.955 32.0833 17.5408V11.6667Z" fill="black"/>
<path d="M75.0387 51H89.9427V49.128H77.1987V38.004H87.6027V36.168H77.1987V26.592H89.5467V24.756H75.0387V51ZM95.6754 51H97.8354V38.544H108.239V36.708H97.8354V26.592H110.147V24.756H95.6754V51ZM114.836 51H129.74V49.128H116.996V38.004H127.4V36.168H116.996V26.592H129.344V24.756H114.836V51ZM144.904 51.468C148.288 51.468 150.736 50.064 152.752 47.724L151.528 46.356C149.656 48.408 147.676 49.524 145.012 49.524C139.504 49.524 136.084 44.952 136.084 37.788C136.084 30.696 139.576 26.232 145.12 26.232C147.532 26.232 149.404 27.276 150.808 28.86L152.032 27.456C150.628 25.8 148.216 24.288 145.12 24.288C138.46 24.288 133.816 29.472 133.816 37.86C133.816 46.248 138.424 51.468 144.904 51.468ZM162.814 51H165.01V26.592H173.29V24.756H154.57V26.592H162.814V51ZM178.257 51H180.417V24.756H178.257V51ZM192.998 51H195.374L203.906 24.756H201.71L197.03 39.84C196.022 43.008 195.338 45.456 194.258 48.624H194.114C193.07 45.456 192.386 43.008 191.414 39.84L186.698 24.756H184.394L192.998 51ZM216.688 51.468C223.096 51.468 227.596 46.14 227.596 37.788C227.596 29.472 223.096 24.288 216.688 24.288C210.352 24.288 205.816 29.472 205.816 37.788C205.816 46.14 210.352 51.468 216.688 51.468ZM216.688 49.524C211.504 49.524 208.084 44.916 208.084 37.788C208.084 30.66 211.504 26.232 216.688 26.232C221.908 26.232 225.364 30.66 225.364 37.788C225.364 44.916 221.908 49.524 216.688 49.524Z" fill="black"/>
<path d="M71.2227 56.4H229.792V58.2H71.2227V56.4Z" fill="black"/>
</svg>
