<svg width="301" height="72" viewBox="0 0 301 72" fill="none" xmlns="http://www.w3.org/2000/svg">
<rect opacity="0.5" y="2" width="301" height="70" rx="15" fill="#8DF2D5"/>
<path d="M14.5834 14.5833H52.5C54.8207 14.5833 57.0463 15.5052 58.6872 17.1461C60.3282 18.7871 61.25 21.0127 61.25 23.3333V49.5833C61.25 51.904 60.3282 54.1296 58.6872 55.7705C57.0463 57.4115 54.8207 58.3333 52.5 58.3333H14.5834C12.2627 58.3333 10.0371 57.4115 8.39619 55.7705C6.75525 54.1296 5.83337 51.904 5.83337 49.5833V23.3333C5.83337 21.0127 6.75525 18.7871 8.39619 17.1461C10.0371 15.5052 12.2627 14.5833 14.5834 14.5833ZM14.5834 17.5C13.0363 17.5 11.5525 18.1146 10.4586 19.2085C9.36462 20.3025 8.75004 21.7862 8.75004 23.3333V26.25H58.3334V23.3333C58.3334 21.7862 57.7188 20.3025 56.6248 19.2085C55.5309 18.1146 54.0471 17.5 52.5 17.5H14.5834ZM8.75004 49.5833C8.75004 51.1304 9.36462 52.6142 10.4586 53.7081C11.5525 54.8021 13.0363 55.4167 14.5834 55.4167H52.5C54.0471 55.4167 55.5309 54.8021 56.6248 53.7081C57.7188 52.6142 58.3334 51.1304 58.3334 49.5833V35H8.75004V49.5833ZM14.5834 46.6667H26.25V49.5833H14.5834V46.6667ZM32.0834 46.6667H40.8334V49.5833H32.0834V46.6667ZM8.75004 29.1667V32.0833H58.3334V29.1667H8.75004Z" fill="black"/>
<path d="M65.5384 48H70.7284C77.4184 48 80.7184 43.68 80.7184 36.99C80.7184 30.3 77.4184 26.13 70.6984 26.13H65.5384V48ZM67.3384 46.47V27.63H70.5184C76.2784 27.63 78.8284 31.32 78.8284 36.99C78.8284 42.66 76.2784 46.47 70.5184 46.47H67.3384ZM85.6946 48H98.1146V46.44H87.4946V37.17H96.1646V35.64H87.4946V27.66H97.7846V26.13H85.6946V48ZM102.892 48H109.372C114.292 48 117.532 45.84 117.532 41.61C117.532 38.61 115.672 36.84 112.882 36.36V36.21C115.042 35.55 116.212 33.69 116.212 31.44C116.212 27.75 113.332 26.13 108.922 26.13H102.892V48ZM104.692 35.67V27.6H108.532C112.402 27.6 114.412 28.68 114.412 31.65C114.412 34.14 112.672 35.67 108.352 35.67H104.692ZM104.692 46.5V37.11H108.952C113.302 37.11 115.762 38.55 115.762 41.61C115.762 45 113.182 46.5 108.952 46.5H104.692ZM122.14 48H123.94V26.13H122.14V48ZM134.964 48H136.794V27.66H143.694V26.13H128.094V27.66H134.964V48ZM154.781 48.39C160.121 48.39 163.871 43.95 163.871 36.99C163.871 30.06 160.121 25.74 154.781 25.74C149.501 25.74 145.721 30.06 145.721 36.99C145.721 43.95 149.501 48.39 154.781 48.39ZM154.781 46.77C150.461 46.77 147.611 42.93 147.611 36.99C147.611 31.05 150.461 27.36 154.781 27.36C159.131 27.36 162.011 31.05 162.011 36.99C162.011 42.93 159.131 46.77 154.781 46.77ZM165.315 53.31H166.725L176.625 24.39H175.185L165.315 53.31ZM187.539 48.39C190.359 48.39 192.399 47.22 194.079 45.27L193.059 44.13C191.499 45.84 189.849 46.77 187.629 46.77C183.039 46.77 180.189 42.96 180.189 36.99C180.189 31.08 183.099 27.36 187.719 27.36C189.729 27.36 191.289 28.23 192.459 29.55L193.479 28.38C192.309 27 190.299 25.74 187.719 25.74C182.169 25.74 178.299 30.06 178.299 37.05C178.299 44.04 182.139 48.39 187.539 48.39ZM198.488 48H200.288V38.13H204.758L210.578 48H212.618L206.708 37.98C210.038 37.47 212.168 35.46 212.168 31.98C212.168 27.72 209.228 26.13 204.878 26.13H198.488V48ZM200.288 36.63V27.63H204.458C208.238 27.63 210.338 28.8 210.338 31.98C210.338 35.13 208.238 36.63 204.458 36.63H200.288ZM216.74 48H229.16V46.44H218.54V37.17H227.21V35.64H218.54V27.66H228.83V26.13H216.74V48ZM222.53 24.6L227.09 20.85L226.01 19.56L221.75 23.7L222.53 24.6ZM233.937 48H239.127C245.817 48 249.117 43.68 249.117 36.99C249.117 30.3 245.817 26.13 239.097 26.13H233.937V48ZM235.737 46.47V27.63H238.917C244.677 27.63 247.227 31.32 247.227 36.99C247.227 42.66 244.677 46.47 238.917 46.47H235.737ZM254.093 48H255.893V26.13H254.093V48ZM266.917 48H268.747V27.66H275.647V26.13H260.047V27.66H266.917V48ZM286.734 48.39C292.074 48.39 295.824 43.95 295.824 36.99C295.824 30.06 292.074 25.74 286.734 25.74C281.454 25.74 277.674 30.06 277.674 36.99C277.674 43.95 281.454 48.39 286.734 48.39ZM286.734 46.77C282.414 46.77 279.564 42.93 279.564 36.99C279.564 31.05 282.414 27.36 286.734 27.36C291.084 27.36 293.964 31.05 293.964 36.99C293.964 42.93 291.084 46.77 286.734 46.77Z" fill="black"/>
<path d="M62.3584 52.5H297.654V54H62.3584V52.5Z" fill="black"/>
</svg>
