<svg width="60" height="61" viewBox="0 0 60 61" fill="none" xmlns="http://www.w3.org/2000/svg">
<rect width="60" height="61" rx="12" fill="#F2BDD0"/>
<path d="M38.3333 43.2083C39.4383 43.2083 40.4981 43.6546 41.2795 44.4491C42.0609 45.2435 42.4999 46.321 42.4999 47.4444C42.4999 48.5679 42.0609 49.6454 41.2795 50.4398C40.4981 51.2342 39.4383 51.6805 38.3333 51.6805C37.2282 51.6805 36.1684 51.2342 35.387 50.4398C34.6056 49.6454 34.1666 48.5679 34.1666 47.4444C34.1666 46.321 34.6056 45.2435 35.387 44.4491C36.1684 43.6546 37.2282 43.2083 38.3333 43.2083ZM38.3333 45.3264C37.7807 45.3264 37.2508 45.5495 36.8601 45.9467C36.4694 46.344 36.2499 46.8827 36.2499 47.4444C36.2499 48.0062 36.4694 48.5449 36.8601 48.9421C37.2508 49.3393 37.7807 49.5625 38.3333 49.5625C38.8858 49.5625 39.4157 49.3393 39.8064 48.9421C40.1971 48.5449 40.4166 48.0062 40.4166 47.4444C40.4166 46.8827 40.1971 46.344 39.8064 45.9467C39.4157 45.5495 38.8858 45.3264 38.3333 45.3264ZM19.5833 43.2083C20.6883 43.2083 21.7481 43.6546 22.5295 44.4491C23.3109 45.2435 23.7499 46.321 23.7499 47.4444C23.7499 48.5679 23.3109 49.6454 22.5295 50.4398C21.7481 51.2342 20.6883 51.6805 19.5833 51.6805C18.4782 51.6805 17.4184 51.2342 16.637 50.4398C15.8556 49.6454 15.4166 48.5679 15.4166 47.4444C15.4166 46.321 15.8556 45.2435 16.637 44.4491C17.4184 43.6546 18.4782 43.2083 19.5833 43.2083ZM19.5833 45.3264C19.0307 45.3264 18.5008 45.5495 18.1101 45.9467C17.7194 46.344 17.4999 46.8827 17.4999 47.4444C17.4999 48.0062 17.7194 48.5449 18.1101 48.9421C18.5008 49.3393 19.0307 49.5625 19.5833 49.5625C20.1358 49.5625 20.6657 49.3393 21.0564 48.9421C21.4471 48.5449 21.6666 48.0062 21.6666 47.4444C21.6666 46.8827 21.4471 46.344 21.0564 45.9467C20.6657 45.5495 20.1358 45.3264 19.5833 45.3264ZM42.4999 17.7917H13.902L19.2083 30.5H36.2499C36.5739 30.5005 36.8934 30.4237 37.1829 30.2758C37.4723 30.128 37.7236 29.9131 37.9166 29.6485L44.1666 21.1763H44.1687C44.3997 20.8615 44.5401 20.4875 44.5741 20.0962C44.6081 19.705 44.5345 19.3118 44.3613 18.9606C44.1882 18.6094 43.9224 18.3141 43.5937 18.1077C43.265 17.9013 42.8863 17.7919 42.4999 17.7917ZM36.2499 32.6181H19.3041L17.7083 35.9222L17.4999 36.8542C17.4999 37.4159 17.7194 37.9546 18.1101 38.3519C18.5008 38.7491 19.0307 38.9722 19.5833 38.9722H42.4999V41.0903H19.5833C18.8578 41.0906 18.1448 40.8984 17.5148 40.5326C16.8848 40.1668 16.3597 39.6401 15.9914 39.0046C15.6231 38.3692 15.4244 37.647 15.4149 36.9094C15.4054 36.1719 15.5856 35.4447 15.9374 34.7997L17.4374 31.6776L9.87075 13.5556H7.08325V11.4375H11.2499L13.0187 15.6736H42.4999C43.2872 15.6737 44.0583 15.9005 44.7239 16.3278C45.3896 16.7551 45.9226 17.3653 46.2612 18.0879C46.5997 18.8104 46.73 19.6157 46.637 20.4105C46.5439 21.2052 46.2313 21.9569 45.7353 22.5785L39.6645 30.8092C39.2807 31.368 38.7698 31.8242 38.1753 32.1392C37.5808 32.4541 36.9203 32.6184 36.2499 32.6181Z" fill="black"/>
</svg>
