<svg width="217" height="98" viewBox="0 0 217 98" fill="none" xmlns="http://www.w3.org/2000/svg">
<g filter="url(#filter0_d_10_85)">
<rect x="4" width="209" height="90" rx="15" fill="#F294B6"/>
<g filter="url(#filter1_d_10_85)">
<path d="M29.2699 67.65C37.3199 67.65 42.2199 62.85 42.2199 56.95C42.2199 51.55 39.0699 48.85 34.7199 47L29.6699 44.85C26.6699 43.65 23.7199 42.45 23.7199 39.25C23.7199 36.35 26.1699 34.55 29.9199 34.55C33.1699 34.55 35.7199 35.8 38.0199 37.85L41.0699 34.15C38.2699 31.3 34.2199 29.5 29.9199 29.5C22.9199 29.5 17.8199 33.85 17.8199 39.65C17.8199 45 21.7699 47.8 25.3199 49.3L30.4199 51.5C33.8199 53 36.3199 54.05 36.3199 57.4C36.3199 60.5 33.8199 62.6 29.3699 62.6C25.8199 62.6 22.2199 60.9 19.5699 58.25L16.1699 62.25C19.5199 65.65 24.2199 67.65 29.2699 67.65ZM62.6898 67.65C70.8398 67.65 76.3398 63.2 76.3398 51.2V30.15H70.7398V51.6C70.7398 59.9 67.3398 62.6 62.6898 62.6C58.0898 62.6 54.7898 59.9 54.7898 51.6V30.15H48.9898V51.2C48.9898 63.2 54.5398 67.65 62.6898 67.65ZM95.8227 67.65C103.873 67.65 108.773 62.85 108.773 56.95C108.773 51.55 105.623 48.85 101.273 47L96.2227 44.85C93.2227 43.65 90.2727 42.45 90.2727 39.25C90.2727 36.35 92.7227 34.55 96.4727 34.55C99.7227 34.55 102.273 35.8 104.573 37.85L107.623 34.15C104.823 31.3 100.773 29.5 96.4727 29.5C89.4727 29.5 84.3727 33.85 84.3727 39.65C84.3727 45 88.3227 47.8 91.8727 49.3L96.9727 51.5C100.373 53 102.873 54.05 102.873 57.4C102.873 60.5 100.373 62.6 95.9227 62.6C92.3727 62.6 88.7727 60.9 86.1227 58.25L82.7227 62.25C86.0727 65.65 90.7727 67.65 95.8227 67.65ZM115.743 67H121.543V50.25H137.293V67H143.093V30.15H137.293V45.2H121.543V30.15H115.743V67ZM152.754 67H158.554V30.15H152.754V67ZM186.614 61.3H191.014V50.5H201.164V46.35H191.014V35.55H186.614V46.35H176.464V50.5H186.614V61.3Z" fill="#FFFDFD"/>
</g>
</g>
<defs>
<filter id="filter0_d_10_85" x="0" y="0" width="217" height="98" filterUnits="userSpaceOnUse" color-interpolation-filters="sRGB">
<feFlood flood-opacity="0" result="BackgroundImageFix"/>
<feColorMatrix in="SourceAlpha" type="matrix" values="0 0 0 0 0 0 0 0 0 0 0 0 0 0 0 0 0 0 127 0" result="hardAlpha"/>
<feOffset dy="4"/>
<feGaussianBlur stdDeviation="2"/>
<feComposite in2="hardAlpha" operator="out"/>
<feColorMatrix type="matrix" values="0 0 0 0 0 0 0 0 0 0 0 0 0 0 0 0 0 0 0.25 0"/>
<feBlend mode="normal" in2="BackgroundImageFix" result="effect1_dropShadow_10_85"/>
<feBlend mode="normal" in="SourceGraphic" in2="effect1_dropShadow_10_85" result="shape"/>
</filter>
<filter id="filter1_d_10_85" x="12.1699" y="29.5" width="192.995" height="46.15" filterUnits="userSpaceOnUse" color-interpolation-filters="sRGB">
<feFlood flood-opacity="0" result="BackgroundImageFix"/>
<feColorMatrix in="SourceAlpha" type="matrix" values="0 0 0 0 0 0 0 0 0 0 0 0 0 0 0 0 0 0 127 0" result="hardAlpha"/>
<feOffset dy="4"/>
<feGaussianBlur stdDeviation="2"/>
<feComposite in2="hardAlpha" operator="out"/>
<feColorMatrix type="matrix" values="0 0 0 0 0 0 0 0 0 0 0 0 0 0 0 0 0 0 0.25 0"/>
<feBlend mode="normal" in2="BackgroundImageFix" result="effect1_dropShadow_10_85"/>
<feBlend mode="normal" in="SourceGraphic" in2="effect1_dropShadow_10_85" result="shape"/>
</filter>
</defs>
</svg>
