<svg width="223" height="52" viewBox="0 0 223 52" fill="none" xmlns="http://www.w3.org/2000/svg">
<path d="M57 12C57 5.37258 62.3726 0 69 0H95C101.627 0 107 5.37258 107 12V38C107 44.6274 101.627 50 95 50H69C62.3726 50 57 44.6274 57 38V12Z" fill="#F2D6A2"/>
<g filter="url(#filter0_d_29_54)">
<path d="M82 29.375C79.6562 29.375 77.625 27.5 77.625 25C77.625 22.6562 79.5 20.625 82 20.625C84.3438 20.625 86.375 22.5 86.375 25C86.375 27.3437 84.3438 29.375 82 29.375Z" fill="#8DF2D5"/>
<path fill-rule="evenodd" clip-rule="evenodd" d="M87.3125 14.375H76.6875C75.4375 14.5312 74.8125 14.6875 74.3438 14.8437C73.7188 15 73.25 15.3125 72.7813 15.7812C72.4103 16.1522 72.2351 16.5231 72.0233 16.9714C71.9674 17.0896 71.9089 17.2134 71.8438 17.3437C71.8196 17.4163 71.7917 17.4925 71.7618 17.5742C71.5983 18.0208 71.375 18.6309 71.375 19.6875V30.3125C71.5312 31.5625 71.6875 32.1875 71.8438 32.6562C72 33.2812 72.3125 33.75 72.7813 34.2187C73.1522 34.5897 73.5231 34.7649 73.9714 34.9767C74.0897 35.0326 74.2133 35.091 74.3438 35.1562C74.4163 35.1804 74.4925 35.2083 74.5742 35.2382C75.0208 35.4017 75.6309 35.625 76.6875 35.625H87.3125C88.5625 35.4687 89.1875 35.3125 89.6562 35.1562C90.2812 35 90.75 34.6875 91.2188 34.2187C91.5897 33.8478 91.7649 33.4769 91.9767 33.0286C92.0326 32.9104 92.091 32.7867 92.1562 32.6562C92.1804 32.5837 92.2083 32.5075 92.2382 32.4257C92.4017 31.9792 92.625 31.3691 92.625 30.3125V19.6875C92.4688 18.4375 92.3125 17.8125 92.1562 17.3437C92 16.7187 91.6875 16.25 91.2188 15.7812C90.8478 15.4103 90.4769 15.2351 90.0286 15.0233C89.9105 14.9675 89.7865 14.9089 89.6562 14.8437C89.5837 14.8196 89.5075 14.7917 89.4258 14.7617C88.9792 14.5983 88.3691 14.375 87.3125 14.375ZM82 18.2812C78.25 18.2812 75.2812 21.25 75.2812 25C75.2812 28.75 78.25 31.7187 82 31.7187C85.75 31.7187 88.7187 28.75 88.7187 25C88.7187 21.25 85.75 18.2812 82 18.2812ZM90.4375 18.125C90.4375 18.9879 89.7379 19.6875 88.875 19.6875C88.0121 19.6875 87.3125 18.9879 87.3125 18.125C87.3125 17.2621 88.0121 16.5625 88.875 16.5625C89.7379 16.5625 90.4375 17.2621 90.4375 18.125Z" fill="#8DF2D5"/>
<path fill-rule="evenodd" clip-rule="evenodd" d="M57 7.8125C57 3.49778 60.4978 0 64.8125 0H99.1875C103.502 0 107 3.49778 107 7.8125V42.1875C107 46.5022 103.502 50 99.1875 50H64.8125C60.4978 50 57 46.5022 57 42.1875V7.8125ZM76.6875 12.0312H87.3125C88.7187 12.1875 89.6562 12.3437 90.4375 12.6562C91.375 13.125 92 13.4375 92.7812 14.2187C93.5625 15 94.0312 15.7812 94.3438 16.5625C94.6562 17.3437 94.9688 18.2812 94.9688 19.6875V30.3125C94.8125 31.7187 94.6562 32.6562 94.3438 33.4375C93.875 34.375 93.5625 35 92.7812 35.7812C92 36.5625 91.2188 37.0312 90.4375 37.3437C89.6562 37.6562 88.7187 37.9687 87.3125 37.9687H76.6875C75.2813 37.8125 74.3438 37.6562 73.5625 37.3437C72.625 36.875 72 36.5625 71.2188 35.7812C70.4375 35 69.9688 34.2187 69.6563 33.4375C69.3438 32.6562 69.0312 31.7187 69.0312 30.3125V19.6875C69.1875 18.2812 69.3438 17.3437 69.6563 16.5625C70.125 15.625 70.4375 15 71.2188 14.2187C72 13.4375 72.7813 12.9687 73.5625 12.6562C74.3438 12.3437 75.2813 12.0312 76.6875 12.0312Z" fill="#8DF2D5"/>
</g>
<path d="M114 10C114 4.47715 118.477 0 124 0H154C159.523 0 164 4.47715 164 10V40C164 45.5228 159.523 50 154 50H124C118.477 50 114 45.5228 114 40V10Z" fill="#F2D6A2"/>
<g filter="url(#filter1_d_29_54)">
<path fill-rule="evenodd" clip-rule="evenodd" d="M133.688 33.9062C135.25 34.8438 137.125 35.3125 139 35.3125C144.781 35.3125 149.313 30.625 149.313 25.1562C149.313 22.3438 148.375 19.8437 146.344 17.8125C144.313 15.9375 141.813 14.8438 139 14.8438C133.375 14.8438 128.687 19.5312 128.687 25.1562C128.687 27.0313 129.156 28.9062 130.25 30.625L130.563 31.0938L129.469 34.8438L133.375 33.75L133.688 33.9062ZM142.438 26.5625C142.75 26.5625 144.313 27.3438 144.625 27.5C144.674 27.5243 144.722 27.5449 144.77 27.5652C145.031 27.6752 145.274 27.7779 145.406 28.4375C145.563 28.4375 145.562 29.0625 145.25 29.8437C145.094 30.4688 143.844 31.25 143.219 31.25C143.113 31.25 143.011 31.259 142.903 31.2685C142.372 31.3155 141.675 31.3772 139.469 30.4688C136.731 29.3735 134.832 26.7186 134.299 25.9731C134.224 25.8678 134.176 25.8006 134.156 25.7812C134.13 25.728 134.076 25.6431 134.005 25.5311C133.659 24.9853 132.906 23.7965 132.906 22.5C132.906 20.9375 133.687 20.1563 134 19.8437C134.312 19.5312 134.625 19.5312 134.781 19.5312H135.406C135.563 19.5312 135.875 19.5312 136.031 20C136.344 20.625 136.969 22.1875 136.969 22.3438C136.969 22.3958 136.986 22.4479 137.003 22.5C137.038 22.6042 137.073 22.7083 136.969 22.8125C136.891 22.8906 136.852 22.9687 136.813 23.0469C136.773 23.125 136.734 23.2031 136.656 23.2813L136.188 23.75C136.031 23.9063 135.875 24.0625 136.031 24.375C136.188 24.6875 136.813 25.7812 137.75 26.5625C138.805 27.4855 139.637 27.8521 140.059 28.038C140.137 28.0724 140.201 28.1006 140.25 28.125C140.562 28.125 140.719 28.125 140.875 27.9688C140.953 27.8125 141.148 27.5781 141.344 27.3438C141.539 27.1094 141.734 26.875 141.812 26.7187C141.969 26.4063 142.125 26.4063 142.438 26.5625Z" fill="#8DF2D5"/>
<path fill-rule="evenodd" clip-rule="evenodd" d="M114 7.8125C114 3.49778 117.498 0 121.812 0H156.188C160.502 0 164 3.49778 164 7.8125V42.1875C164 46.5022 160.502 50 156.188 50H121.812C117.498 50 114 46.5022 114 42.1875V7.8125ZM139 12.5C142.281 12.5 145.406 13.75 147.75 16.0938C150.094 18.4375 151.5 21.5625 151.5 24.8438C151.5 31.7188 145.875 37.3438 139 37.3438C136.969 37.3438 134.938 36.7188 133.063 35.7813L126.5 37.5L128.219 31.25C127.125 29.375 126.5 27.1875 126.5 25C126.5 18.125 132.125 12.5 139 12.5Z" fill="#8DF2D5"/>
</g>
<path d="M0 8C0 3.58172 3.58172 0 8 0H42C46.4183 0 50 3.58172 50 8V42C50 46.4183 46.4183 50 42 50H8C3.58172 50 0 46.4183 0 42V8Z" fill="#F2D6A2"/>
<g filter="url(#filter2_d_29_54)">
<path fill-rule="evenodd" clip-rule="evenodd" d="M0 7.8125C0 3.49778 3.49778 0 7.8125 0H42.1875C46.5022 0 50 3.49778 50 7.8125V42.1875C50 46.5022 46.5022 50 42.1875 50H7.8125C3.49778 50 0 46.5022 0 42.1875V7.8125ZM25 12.5C31.875 12.5 37.5 18.125 37.5 25C37.5 31.25 32.9688 36.5625 26.7188 37.5V28.5937H29.6875L30.3125 25H26.875V22.6562C26.875 21.7188 27.3438 20.7812 28.9062 20.7812H30.4688V17.6562C30.4688 17.6562 29.0625 17.3438 27.6563 17.3438C24.8438 17.3438 22.9688 19.0625 22.9688 22.1875V25H19.8438V28.5937H22.9688V37.3438C17.0312 36.4062 12.5 31.25 12.5 25C12.5 18.125 18.125 12.5 25 12.5Z" fill="#8DF2D5"/>
</g>
<path d="M171 7C171 3.13401 174.134 0 178 0H214C217.866 0 221 3.13401 221 7V43C221 46.866 217.866 50 214 50H178C174.134 50 171 46.866 171 43V7Z" fill="#F2D6A2"/>
<g filter="url(#filter3_d_29_54)">
<path fill-rule="evenodd" clip-rule="evenodd" d="M178.812 0C174.498 0 171 3.49778 171 7.8125V42.1875C171 46.5022 174.498 50 178.812 50H213.188C217.502 50 221 46.5022 221 42.1875V7.8125C221 3.49778 217.502 0 213.188 0H178.812ZM200.872 12.5C200.872 12.8715 200.907 13.2373 200.971 13.5914C201.278 15.2282 202.247 16.6329 203.592 17.5093C204.532 18.1246 205.646 18.4787 206.846 18.4787L206.846 19.4363V22.7739C204.619 22.7739 202.554 22.06 200.872 20.8526V29.5884C200.872 33.9476 197.323 37.5 192.967 37.5C191.285 37.5 189.719 36.9659 188.438 36.0662C186.396 34.6325 185.062 32.2642 185.062 29.5884C185.062 25.2234 188.606 21.6769 192.962 21.6827C193.327 21.6827 193.681 21.7117 194.029 21.7582V22.7739L194.016 22.78L194.029 22.7797V26.1464C193.692 26.0419 193.333 25.978 192.962 25.978C190.972 25.978 189.354 27.5975 189.354 29.5884C189.354 30.9758 190.143 32.1772 191.291 32.7867C191.308 32.81 191.326 32.8331 191.343 32.8559C191.33 32.8304 191.315 32.8054 191.297 32.7809C191.802 33.0479 192.37 33.1988 192.973 33.1988C194.916 33.1988 196.505 31.6491 196.575 29.722L196.581 12.5H200.872Z" fill="#8DF2D5"/>
</g>
<defs>
<filter id="filter0_d_29_54" x="57" y="0" width="52" height="52" filterUnits="userSpaceOnUse" color-interpolation-filters="sRGB">
<feFlood flood-opacity="0" result="BackgroundImageFix"/>
<feColorMatrix in="SourceAlpha" type="matrix" values="0 0 0 0 0 0 0 0 0 0 0 0 0 0 0 0 0 0 127 0" result="hardAlpha"/>
<feOffset dx="1" dy="1"/>
<feGaussianBlur stdDeviation="0.5"/>
<feComposite in2="hardAlpha" operator="out"/>
<feColorMatrix type="matrix" values="0 0 0 0 0 0 0 0 0 0 0 0 0 0 0 0 0 0 0.5 0"/>
<feBlend mode="normal" in2="BackgroundImageFix" result="effect1_dropShadow_29_54"/>
<feBlend mode="normal" in="SourceGraphic" in2="effect1_dropShadow_29_54" result="shape"/>
</filter>
<filter id="filter1_d_29_54" x="114" y="0" width="52" height="52" filterUnits="userSpaceOnUse" color-interpolation-filters="sRGB">
<feFlood flood-opacity="0" result="BackgroundImageFix"/>
<feColorMatrix in="SourceAlpha" type="matrix" values="0 0 0 0 0 0 0 0 0 0 0 0 0 0 0 0 0 0 127 0" result="hardAlpha"/>
<feOffset dx="1" dy="1"/>
<feGaussianBlur stdDeviation="0.5"/>
<feComposite in2="hardAlpha" operator="out"/>
<feColorMatrix type="matrix" values="0 0 0 0 0 0 0 0 0 0 0 0 0 0 0 0 0 0 0.5 0"/>
<feBlend mode="normal" in2="BackgroundImageFix" result="effect1_dropShadow_29_54"/>
<feBlend mode="normal" in="SourceGraphic" in2="effect1_dropShadow_29_54" result="shape"/>
</filter>
<filter id="filter2_d_29_54" x="0" y="0" width="52" height="52" filterUnits="userSpaceOnUse" color-interpolation-filters="sRGB">
<feFlood flood-opacity="0" result="BackgroundImageFix"/>
<feColorMatrix in="SourceAlpha" type="matrix" values="0 0 0 0 0 0 0 0 0 0 0 0 0 0 0 0 0 0 127 0" result="hardAlpha"/>
<feOffset dx="1" dy="1"/>
<feGaussianBlur stdDeviation="0.5"/>
<feComposite in2="hardAlpha" operator="out"/>
<feColorMatrix type="matrix" values="0 0 0 0 0 0 0 0 0 0 0 0 0 0 0 0 0 0 0.5 0"/>
<feBlend mode="normal" in2="BackgroundImageFix" result="effect1_dropShadow_29_54"/>
<feBlend mode="normal" in="SourceGraphic" in2="effect1_dropShadow_29_54" result="shape"/>
</filter>
<filter id="filter3_d_29_54" x="171" y="0" width="52" height="52" filterUnits="userSpaceOnUse" color-interpolation-filters="sRGB">
<feFlood flood-opacity="0" result="BackgroundImageFix"/>
<feColorMatrix in="SourceAlpha" type="matrix" values="0 0 0 0 0 0 0 0 0 0 0 0 0 0 0 0 0 0 127 0" result="hardAlpha"/>
<feOffset dx="1" dy="1"/>
<feGaussianBlur stdDeviation="0.5"/>
<feComposite in2="hardAlpha" operator="out"/>
<feColorMatrix type="matrix" values="0 0 0 0 0 0 0 0 0 0 0 0 0 0 0 0 0 0 0.5 0"/>
<feBlend mode="normal" in2="BackgroundImageFix" result="effect1_dropShadow_29_54"/>
<feBlend mode="normal" in="SourceGraphic" in2="effect1_dropShadow_29_54" result="shape"/>
</filter>
</defs>
</svg>
