<svg width="209" height="90" viewBox="0 0 209 90" fill="none" xmlns="http://www.w3.org/2000/svg">
<rect width="209" height="90" rx="15" fill="#F2BDD0"/>
<g filter="url(#filter0_d_171_77)">
<path d="M45.143 67.65C53.193 67.65 58.093 62.85 58.093 56.95C58.093 51.55 54.943 48.85 50.593 47L45.543 44.85C42.543 43.65 39.593 42.45 39.593 39.25C39.593 36.35 42.043 34.55 45.793 34.55C49.043 34.55 51.593 35.8 53.893 37.85L56.943 34.15C54.143 31.3 50.093 29.5 45.793 29.5C38.793 29.5 33.693 33.85 33.693 39.65C33.693 45 37.643 47.8 41.193 49.3L46.293 51.5C49.693 53 52.193 54.05 52.193 57.4C52.193 60.5 49.693 62.6 45.243 62.6C41.693 62.6 38.093 60.9 35.443 58.25L32.043 62.25C35.393 65.65 40.093 67.65 45.143 67.65ZM78.5629 67.65C86.7129 67.65 92.2129 63.2 92.2129 51.2V30.15H86.6129V51.6C86.6129 59.9 83.2129 62.6 78.5629 62.6C73.9629 62.6 70.6629 59.9 70.6629 51.6V30.15H64.8629V51.2C64.8629 63.2 70.4129 67.65 78.5629 67.65ZM111.696 67.65C119.746 67.65 124.646 62.85 124.646 56.95C124.646 51.55 121.496 48.85 117.146 47L112.096 44.85C109.096 43.65 106.146 42.45 106.146 39.25C106.146 36.35 108.596 34.55 112.346 34.55C115.596 34.55 118.146 35.8 120.446 37.85L123.496 34.15C120.696 31.3 116.646 29.5 112.346 29.5C105.346 29.5 100.246 33.85 100.246 39.65C100.246 45 104.196 47.8 107.746 49.3L112.846 51.5C116.246 53 118.746 54.05 118.746 57.4C118.746 60.5 116.246 62.6 111.796 62.6C108.246 62.6 104.646 60.9 101.996 58.25L98.5957 62.25C101.946 65.65 106.646 67.65 111.696 67.65ZM131.616 67H137.416V50.25H153.166V67H158.966V30.15H153.166V45.2H137.416V30.15H131.616V67ZM168.627 67H174.427V30.15H168.627V67Z" fill="#FFFDFD"/>
</g>
<defs>
<filter id="filter0_d_171_77" x="28.043" y="29.5" width="150.384" height="46.15" filterUnits="userSpaceOnUse" color-interpolation-filters="sRGB">
<feFlood flood-opacity="0" result="BackgroundImageFix"/>
<feColorMatrix in="SourceAlpha" type="matrix" values="0 0 0 0 0 0 0 0 0 0 0 0 0 0 0 0 0 0 127 0" result="hardAlpha"/>
<feOffset dy="4"/>
<feGaussianBlur stdDeviation="2"/>
<feComposite in2="hardAlpha" operator="out"/>
<feColorMatrix type="matrix" values="0 0 0 0 0 0 0 0 0 0 0 0 0 0 0 0 0 0 0.25 0"/>
<feBlend mode="normal" in2="BackgroundImageFix" result="effect1_dropShadow_171_77"/>
<feBlend mode="normal" in="SourceGraphic" in2="effect1_dropShadow_171_77" result="shape"/>
</filter>
</defs>
</svg>
